<svg width="80" height="80" viewBox="0 0 80 80" fill="none" xmlns="http://www.w3.org/2000/svg">
<path fill-rule="evenodd" clip-rule="evenodd" d="M38.9173 11.0461C38.6227 11.2012 38.1933 11.5742 37.9631 11.875C37.733 12.1758 30.7845 24.4511 22.5223 39.1536C8.1425 64.7419 7.5 65.9187 7.5 66.6695C7.5 67.537 7.87844 68.2464 8.64422 68.8137L9.08547 69.1406H40H70.9145L71.3558 68.8137C72.1314 68.239 72.5 67.539 72.5 66.6406C72.5 65.6087 72.0508 64.8951 71.0984 64.414C70.4125 64.0675 70.3158 64.0625 64.3645 64.0625H58.3266L58.1398 61.9912C57.8916 59.2384 57.7706 58.7595 57.1933 58.2422C56.3881 57.5206 55.1109 57.7801 54.5995 58.769C54.3884 59.1772 54.3745 59.4478 54.5092 60.5242C54.5967 61.2242 54.7148 62.3065 54.7719 62.9297L54.8755 64.0625H34.6397H14.4037L24.2605 46.5234C29.6817 36.8769 34.1402 28.955 34.1683 28.919C34.2684 28.7906 35.0359 29.2973 36.9723 30.7704C39.5183 32.7072 39.6823 32.8106 40.2103 32.8117C40.7853 32.8128 41.4902 32.3923 41.7055 31.92C41.7988 31.7153 41.875 31.2894 41.875 30.9734C41.875 30.4765 41.7523 30.2823 40.9666 29.5354C40.467 29.0604 39.1308 28.0126 37.9973 27.2069L35.9364 25.7419L36.2294 25.2537C36.3905 24.9853 37.8673 22.3697 39.5112 19.4414C42.2898 14.4917 42.5 14.062 42.5 13.3317C42.5 12.4709 42.1223 11.7542 41.3788 11.2034C40.7895 10.767 39.5927 10.6905 38.9173 11.0461ZM44.2969 34.2101C43.7752 34.4237 43.4155 34.942 43.3259 35.6095C43.2284 36.3373 43.2906 36.4528 44.6511 38.0723C45.1683 38.6878 46.0997 39.9033 46.7208 40.7733C47.3661 41.6772 48.0511 42.459 48.3191 42.5976C49.2633 43.0859 50.5094 42.4161 50.7172 41.3084C50.8356 40.6767 50.4212 39.9239 48.6892 37.625C46.1228 34.2186 45.4859 33.7236 44.2969 34.2101ZM51.2042 45.4712C50.6823 45.8817 50.4259 46.6581 50.6111 47.2673C50.6892 47.5242 51.0311 48.3672 51.3709 49.1406C51.7108 49.914 52.2519 51.3386 52.5734 52.3062C52.9813 53.5337 53.2733 54.1564 53.5394 54.3658C54.5197 55.1369 55.8444 54.792 56.2344 53.6642C56.4428 53.0612 56.4253 52.9481 55.8605 51.2423C54.9931 48.6239 53.8053 45.9126 53.3483 45.5078C52.8262 45.0454 51.7684 45.0275 51.2042 45.4712Z" fill="#9277DE"/>
</svg>
