<svg width="40" height="40" viewBox="0 0 40 40" fill="none" xmlns="http://www.w3.org/2000/svg">
<circle cx="20" cy="20" r="20" fill="#76FF64"/>
<path d="M21.4736 5.26715C21.0756 5.40177 20.9585 5.57736 19.6064 8.12345C18.8807 9.49307 18.2602 10.7222 18.2193 10.8568C18.1607 11.0851 18.1958 11.2841 18.7226 13.52C19.0387 14.8486 19.2904 15.9666 19.2904 16.0017C19.2904 16.0427 18.3071 17.7927 17.1013 19.894C15.0586 23.4761 14.7191 24.0263 11.8862 28.4044C10.2181 30.9797 8.8192 33.1863 8.77823 33.3151C8.59679 33.8302 8.71385 34.3101 9.13527 34.7257C9.56255 35.153 10.0191 35.2642 10.581 35.071C10.7332 35.0242 10.938 34.8954 11.0492 34.7901C11.1546 34.6847 12.6471 32.4254 14.3679 29.7623C16.0887 27.0991 17.5169 24.9218 17.5403 24.9218C17.5637 24.9218 17.9851 25.1149 18.4826 25.3491L19.3782 25.7822L21.3507 27.4737L23.3231 29.1653L23.329 31.5592C23.329 33.2566 23.3524 34.0233 23.3992 34.1931C23.4929 34.515 23.9787 35.0008 24.3006 35.0944C24.8215 35.2466 25.3483 35.1179 25.7229 34.7491C26.1502 34.316 26.1443 34.3921 26.1268 31.0324L26.1092 28.0473L25.9512 27.8074C25.8634 27.6727 25.1727 27.0348 24.4118 26.3792C23.6568 25.7295 23.0363 25.1793 23.0363 25.1618C23.0363 25.1442 24.0431 24.7755 25.2781 24.3423C28.3158 23.2712 28.3217 23.2712 28.5441 22.7854C28.6904 22.4694 28.6846 22.1299 28.5207 21.8138C28.3744 21.527 25.5649 17.6698 25.3249 17.4181C25.2195 17.3069 22.5739 15.709 21.5321 15.1237C21.5087 15.1062 20.6366 11.3836 20.6366 11.3017C20.6366 11.2548 21.1692 10.213 21.8189 8.98385C22.8842 6.9821 23.0012 6.72456 23.0246 6.43191C23.0656 5.78807 22.5974 5.25544 21.9711 5.22032C21.8013 5.20861 21.5789 5.23203 21.4736 5.26715ZM25.5532 21.7085C25.5532 21.7494 22.7905 22.7444 22.7495 22.721C22.732 22.7035 22.9193 22.364 23.9904 20.4559L24.2772 19.9408L24.9152 20.8012C25.2664 21.2812 25.5532 21.685 25.5532 21.7085Z" fill="white"/>
<path d="M23.9143 10.8393C23.2295 11.0207 22.5857 11.565 22.2872 12.203C22.1467 12.5074 22.1292 12.6127 22.1292 13.1864C22.1292 13.8009 22.1409 13.8536 22.3223 14.2282C22.5681 14.7316 22.9837 15.1413 23.4812 15.3871C24.1836 15.7383 25.1259 15.6798 25.799 15.2583C27.1101 14.4214 27.3384 12.6479 26.279 11.5182C25.6937 10.8919 24.7279 10.6168 23.9143 10.8393Z" fill="white"/>
</svg>
