<svg width="40" height="40" viewBox="0 0 40 40" fill="none" xmlns="http://www.w3.org/2000/svg">
<circle cx="20" cy="20" r="20" fill="#FF6490"/>
<g clip-path="url(#clip0_44_49)">
<path d="M19.3546 3.5492C18.3349 3.74927 17.4636 4.63989 17.2442 5.71122C16.8376 7.7119 18.6641 9.44798 20.6454 8.93167C22.7493 8.3831 23.4205 5.74995 21.8264 4.24621C21.1681 3.62019 20.271 3.36849 19.3546 3.5492Z" fill="white"/>
<path d="M19.3869 10.2998C18.3543 10.4354 17.5153 10.6613 16.8763 10.9839C14.4368 12.2037 12.946 15.4564 13.0428 19.3674C13.0686 20.4452 13.0815 20.5227 13.2493 20.8518C13.5268 21.4068 13.9721 21.6714 14.6304 21.6779C15.037 21.6779 15.321 21.5682 15.5598 21.3165C15.8566 21.0003 15.876 20.8454 15.8308 19.6514C15.7663 17.9928 15.9341 16.6827 16.3665 15.5468L16.5472 15.0628L16.5666 19.4191C16.5795 21.8134 16.5472 25.9503 16.502 28.6157C16.4568 31.2747 16.4181 33.9401 16.4181 34.5274C16.4181 35.5858 16.4181 35.5988 16.5924 35.8634C17.0829 36.6055 18.251 36.7346 18.9867 36.128C19.3933 35.7924 19.4966 35.5084 19.5547 34.5339C19.6192 33.5142 19.7418 27.596 19.7418 25.5631V24.1303H19.9677H20.1936V25.2727C20.1936 27.1249 20.3227 33.4367 20.3808 34.4564C20.4195 35.218 20.4582 35.4439 20.5679 35.6633C21.0971 36.6894 22.717 36.8056 23.343 35.8634C23.5173 35.5988 23.5173 35.5858 23.5173 34.4952C23.5173 33.8885 23.4786 31.2424 23.4399 28.6157C23.3947 25.989 23.343 21.807 23.3237 19.3223L23.285 14.8046L23.4269 15.0628C23.6335 15.4371 23.8529 16.1276 24.0142 16.8956C24.1369 17.4894 24.1562 17.8056 24.1627 19.2577C24.1691 20.3613 24.195 20.9809 24.2401 21.0648C24.6209 21.7424 25.6987 21.8844 26.3828 21.3488C26.4925 21.2649 26.6603 21.0325 26.7571 20.8389L26.9378 20.4839V19.0318C26.9378 17.8121 26.912 17.4571 26.7958 16.8053C26.1956 13.5719 24.5951 11.3647 22.304 10.6354C21.5553 10.3967 20.0064 10.2159 19.3869 10.2998Z" fill="white"/>
</g>
<defs>
<clipPath id="clip0_44_49">
<rect width="33.0435" height="33.0435" fill="white" transform="translate(3.47827 3.47827)"/>
</clipPath>
</defs>
</svg>
