<svg width="34" height="34" viewBox="0 0 34 34" fill="none" xmlns="http://www.w3.org/2000/svg">
<circle cx="17" cy="17" r="17" fill="#1A1D26"/>
<path fill-rule="evenodd" clip-rule="evenodd" d="M10.268 7.09433C9.67881 7.31339 9.29416 7.78536 9.07494 8.55826C9.00345 8.81038 9 9.21976 9 17.4973C9 25.7662 9.00349 26.1846 9.07477 26.4387C9.21066 26.9232 9.40318 27.2649 9.69321 27.5362C10.0363 27.8571 10.3036 27.9658 10.8047 27.9879C11.2712 28.0085 11.6211 27.9302 12.1153 27.6948C12.5205 27.5017 26.2933 19.6146 26.7598 19.3084C27.2889 18.9611 27.6601 18.5201 27.8313 18.0349C28.1226 17.2097 27.7129 16.3117 26.7598 15.6862C26.2936 15.3803 12.5207 7.49296 12.1158 7.30006C11.6533 7.07973 11.3132 6.99807 10.8662 7.00003C10.6079 7.00118 10.4529 7.02559 10.268 7.09433Z" fill="#D9D9D9"/>
</svg>
