<svg width="19" height="21" viewBox="0 0 19 21" fill="none" xmlns="http://www.w3.org/2000/svg">
<path fill-rule="evenodd" clip-rule="evenodd" d="M1.3139 0.0970151C0.724707 0.31608 0.340062 0.788046 0.120834 1.56094C0.0493437 1.81307 0.0458984 2.22244 0.0458984 10.5C0.0458984 18.7688 0.0493848 19.1872 0.12067 19.4414C0.256555 19.9259 0.449082 20.2676 0.739103 20.5389C1.08216 20.8598 1.34954 20.9685 1.85059 20.9906C2.31714 21.0112 2.66696 20.9329 3.1612 20.6975C3.56643 20.5044 17.3392 12.6172 17.8057 12.3111C18.3348 11.9638 18.706 11.5228 18.8772 11.0376C19.1685 10.2124 18.7588 9.31437 17.8057 8.68884C17.3395 8.38295 3.56664 0.495646 3.16169 0.302749C2.69924 0.0824136 2.35914 0.000751468 1.91211 0.00272022C1.65379 0.00386865 1.49884 0.0282729 1.3139 0.0970151Z" fill="#D9D9D9"/>
</svg>
