<svg width="19" height="19" viewBox="0 0 19 19" fill="none" xmlns="http://www.w3.org/2000/svg">
<path fill-rule="evenodd" clip-rule="evenodd" d="M18.9376 5.1952C18.8928 5.0724 18.7586 4.90775 18.4305 4.57302C17.904 4.03571 17.7267 3.92873 17.3592 3.92657C16.8596 3.92372 17.1141 3.69798 13.1089 7.69607L9.49987 11.2986L5.89109 7.69184C1.91976 3.72277 2.14034 3.91982 1.66998 3.91982C1.2935 3.91982 1.13022 4.01296 0.618963 4.51943C0.377678 4.75842 0.145559 5.02078 0.103144 5.10242C-0.00555038 5.31168 -0.0269623 5.68682 0.0552349 5.94169C0.116837 6.13276 0.310621 6.33267 4.48517 10.5124C9.26849 15.3016 9.02324 15.0771 9.4769 15.082C9.96663 15.0873 9.61632 15.4045 14.4474 10.581C17.1411 7.89156 18.8494 6.1587 18.8974 6.06727C19.0021 5.86769 19.0224 5.4272 18.9376 5.1952Z" fill="#9277DE"/>
</svg>
