<svg width="34" height="34" viewBox="0 0 34 34" fill="none" xmlns="http://www.w3.org/2000/svg">
<circle cx="17" cy="17" r="17" fill="#414655"/>
<path fill-rule="evenodd" clip-rule="evenodd" d="M10.1334 7.06326C9.39243 7.24151 8.64832 7.83562 8.31544 8.5148C7.97161 9.21637 8.0006 8.38876 8.0006 17.4972C8.0006 26.6057 7.97161 25.7781 8.31544 26.4796C8.55587 26.9702 9.04433 27.4576 9.53869 27.7003C10.0879 27.9699 10.2614 27.9959 11.5111 27.9966C12.4636 27.9971 12.6418 27.987 12.918 27.9163C13.7341 27.7076 14.4172 27.1397 14.7697 26.3771C15.0525 25.7654 15.0348 26.3593 15.0348 17.4972C15.0348 8.63514 15.0525 9.22904 14.7697 8.61734C14.413 7.84555 13.7414 7.28868 12.9112 7.07638C12.6409 7.00723 12.4613 6.99767 11.4906 7.00063C10.6734 7.00317 10.3144 7.0197 10.1334 7.06326ZM21.3258 7.07831C20.3808 7.32604 19.6938 7.9779 19.3352 8.96687L19.2389 9.23257L19.2274 17.3537C19.217 24.7451 19.222 25.5024 19.2831 25.7824C19.5108 26.827 20.305 27.6529 21.3352 27.9163C21.6114 27.987 21.7896 27.9971 22.742 27.9966C23.9918 27.9959 24.1653 27.9699 24.7145 27.7003C25.2088 27.4576 25.6973 26.9702 25.9377 26.4796C26.2816 25.7781 26.2526 26.6057 26.2526 17.4972C26.2526 8.38876 26.2816 9.21637 25.9377 8.5148C25.6973 8.02425 25.2088 7.53682 24.7145 7.29417C24.1622 7.02306 23.994 6.99821 22.7252 7.00009C21.7794 7.00149 21.5752 7.01293 21.3258 7.07831Z" fill="#D9D9D9"/>
</svg>
