<svg width="40" height="40" viewBox="0 0 40 40" fill="none" xmlns="http://www.w3.org/2000/svg">
<circle cx="20" cy="20" r="20" fill="#64FFE5"/>
<g clip-path="url(#clip0_44_34)">
<path d="M12.8642 5.30966C12.7228 5.36944 12.6685 5.41835 12.6848 5.4727C12.7011 5.51618 12.7174 5.57596 12.7174 5.60313C12.7174 5.63574 12.9457 5.65205 13.2772 5.64118C13.8044 5.62487 13.8315 5.61944 13.8478 5.49987C13.8859 5.25531 13.2826 5.13574 12.8642 5.30966Z" fill="white"/>
<path d="M11.0435 5.38014C10.7392 5.56492 10.7065 5.72253 10.7065 7.03774C10.7065 8.35296 10.7392 8.51057 11.0435 8.69535C11.5435 8.9997 12.1196 8.61927 12.1196 7.97796V7.71709H13.2881H14.4565V7.9997C14.4565 8.72796 15.1739 9.07035 15.6359 8.56492L15.8152 8.36927V7.06492C15.8152 5.6247 15.7935 5.51057 15.4892 5.35296C15.212 5.21166 14.9185 5.24427 14.6902 5.45622C14.5055 5.6247 14.4892 5.66274 14.4674 5.9997L14.4457 6.3584H13.2826H12.1196V6.11383C12.1196 5.61383 11.8315 5.27144 11.4131 5.27144C11.3098 5.27144 11.1413 5.32035 11.0435 5.38014Z" fill="white"/>
<path d="M19.674 5.55425C19.1957 5.72273 18.8044 6.02164 18.5381 6.41838C18.2555 6.83686 18.1522 7.19556 18.1522 7.7173C18.1522 8.98903 19.1087 9.94556 20.3805 9.94556C20.9077 9.94556 21.2609 9.8423 21.6794 9.55969C23.1087 8.60317 22.9403 6.44012 21.375 5.66838C21.0164 5.49447 20.9077 5.4673 20.5 5.45099C20.1142 5.43469 19.962 5.45643 19.674 5.55425Z" fill="white"/>
<path d="M12.6739 8.60852C12.6141 8.73895 12.4782 8.94548 12.3695 9.06504L12.1685 9.28243L12.1848 10.6955L12.2011 12.1031L12.3641 12.364C12.4728 12.5379 12.6087 12.6683 12.7663 12.7553L13.0054 12.8803H15.2554H17.5V22.4618V32.0433L17.6358 32.3205C17.9239 32.8966 18.5706 33.1629 19.2065 32.9781C19.5054 32.8911 19.9565 32.44 20.0435 32.1411C20.0924 31.9727 20.1087 30.6031 20.1087 26.5542V21.19L20.3967 21.2063L20.6793 21.2227L20.7065 26.69L20.7337 32.1574L20.8967 32.4237C21.4293 33.2824 22.6848 33.2227 23.1685 32.315L23.288 32.0922L23.3043 27.9835L23.3152 23.8694L22.9945 23.8477C22.4076 23.8042 21.9239 23.3857 21.7989 22.8096C21.7065 22.3966 21.7228 20.2933 21.8206 19.9672C21.9837 19.4237 22.5 19.0216 23.0435 19.0216H23.3152V16.0868C23.3152 13.2335 23.3206 13.152 23.4185 13.152C23.4782 13.152 23.5869 13.2281 23.663 13.3205L23.8043 13.489V16.3313V19.1737L23.9891 19.315C24.0924 19.3911 24.2445 19.5922 24.3206 19.7553L24.4674 20.0542H24.9945H25.5217L25.5924 19.8585C25.6304 19.7498 25.7445 19.5705 25.8478 19.4563L26.0326 19.2553V16.3803C26.0326 14.1248 26.0163 13.4292 25.9565 13.1466C25.7391 12.1194 24.9619 11.2444 23.9348 10.8531C23.6141 10.7335 23.6141 10.7335 18.9945 10.7063L14.375 10.6792L14.3587 9.95091L14.3424 9.22265L14.1358 8.99439C14.0217 8.86939 13.8967 8.67917 13.8641 8.57048L13.7935 8.36939H13.288H12.7772L12.6739 8.60852Z" fill="white"/>
<path d="M22.75 19.777C22.462 19.9727 22.4511 20.027 22.4457 21.4564V22.7716L22.625 22.9673C23.087 23.4727 23.8044 23.1303 23.8044 22.402V22.1194H24.9729H26.1413V22.3694C26.1413 23.027 26.7065 23.4075 27.2174 23.0977C27.5218 22.9129 27.5544 22.7553 27.5544 21.4401C27.5544 20.1249 27.5218 19.9673 27.2174 19.7825C26.9892 19.6466 26.7065 19.6466 26.4783 19.7825C26.2609 19.9129 26.1413 20.1792 26.1413 20.5162V20.7607H24.9783H23.8152L23.7935 20.4075C23.7772 20.0977 23.75 20.027 23.6033 19.8803C23.3805 19.6629 22.9892 19.614 22.75 19.777Z" fill="white"/>
</g>
<defs>
<clipPath id="clip0_44_34">
<rect width="27.8261" height="27.8261" fill="white" transform="translate(5.21741 5.21729)"/>
</clipPath>
</defs>
</svg>
